<svg xmlns="http://www.w3.org/2000/svg" viewBox="0 0 960 960"><path fill="#000" d="M479.92 63.94q31.76-.05 63.47 1c49.64 1.64 99.24 6.36 148.68 11.45 24.17.9 47.55 8.8 67.33 22.74A425.4 425.4 0 0 1 905.3 306.2a421 421 0 0 1 22.9 176.1 449 449 0 0 1-80.19 228.5 442.5 442.5 0 0 1-157.45 141.33 312 312 0 0 1-61.44 27.4l-2.28.58a559 559 0 0 1-146.93 16.54 559 559 0 0 1-146.94-16.54l-2.28-.58c-21.4-6.89-42.01-16.07-61.44-27.4A442.4 442.4 0 0 1 111.8 710.8a449 449 0 0 1-80.19-228.5 442 442 0 0 1 22.9-176.1A446 446 0 0 1 200.43 99.13a125 125 0 0 1 67.32-22.74c49.44-5.1 99.04-9.81 148.68-11.45q31.72-1 63.48-1m269.56 78.57a57 57 0 0 1-12.41 12.63c-7.74 5.76-16.62 9.63-24.2 12.36-15.66 5.63-36.06 10-58.56 13.43-45.64 6.95-107.27 11.08-174.4 11.08-67.12 0-128.76-4.12-174.39-11.08-22.5-3.42-42.9-7.8-58.56-13.43-7.59-2.74-16.47-6.6-24.2-12.36a57 57 0 0 1-12.25-12.4A406 406 0 0 0 92.4 319l-.04.1-.03.12a402 402 0 0 0-21 157.6l.17 2.55.02.17v.17a409 409 0 0 0 72.05 206.7l1 1.45.14.2.15.21a402.5 402.5 0 0 0 140.53 127.1l2.68 1.46.67.35.65.38a272 272 0 0 0 52.4 23.5 519 519 0 0 0 137.3 15.6l.81-.02.82.01c46.26.95 92.44-4.3 137.3-15.58a272 272 0 0 0 52.4-23.51l.65-.38.67-.36a402.5 402.5 0 0 0 143.21-128.55l.14-.2.15-.21a409 409 0 0 0 73.04-208.15l.02-.38.03-.37a381 381 0 0 0-20.71-159.35l-.2-.57-.2-.58A385.4 385.4 0 0 0 749.49 142.5M479.92 79.47c-131.51 0-238.12 16.24-238.12 36.27 0 19.71 103.3 35.75 231.97 36.25l6.15.01c131.5 0 238.1-16.23 238.1-36.26s-106.6-36.27-238.1-36.27"/><path fill="#000" d="M479.91 134.09c96.17 0 174.12-8.22 174.12-18.34 0-10.13-77.95-18.34-174.12-18.34-96.16 0-174.11 8.2-174.11 18.34 0 10.12 77.95 18.34 174.11 18.34"/></svg>
