<svg xmlns="http://www.w3.org/2000/svg" viewBox="0 0 640 640"><!--!Font Awesome Pro v7.1.0 by @fontawesome - https://fontawesome.com License - https://fontawesome.com/license (Commercial License) Copyright 2025 Fonticons, Inc.--><path d="M116.5 135.4c-9.5-7.9-22.8-9.7-34.1-4.4-11.3 5.3-18.4 16.6-18.4 29v320c0 12.4 7.2 23.7 18.4 29 11.2 5.3 24.5 3.6 34.1-4.4l192-160c7.3-6.1 11.5-15.1 11.5-24.6 0-9.5-4.2-18.5-11.5-24.6l-192-160zM448 160c0-17.7-14.3-32-32-32s-32 14.3-32 32v320c0 17.7 14.3 32 32 32s32-14.3 32-32V160zm128 0c0-17.7-14.3-32-32-32s-32 14.3-32 32v320c0 17.7 14.3 32 32 32s32-14.3 32-32V160z"/></svg>
