<svg xmlns="http://www.w3.org/2000/svg" width="512" height="512" fill="none"><path fill="#000" d="M438.545 179.648c-2.779 2.161-51.834 29.859-51.834 91.45 0 71.239 62.421 96.441 64.289 97.065-.287 1.536-9.916 34.516-32.911 68.119-20.504 29.571-41.918 59.094-74.493 59.094-32.576 0-40.96-18.962-78.566-18.962-36.648 0-49.678 19.586-79.475 19.586-29.798 0-50.589-27.363-74.494-60.966C83.371 395.574 61 334.272 61 276.09c0-93.321 60.553-142.814 120.147-142.814 31.666 0 58.062 20.834 77.943 20.834 18.923 0 48.433-22.082 84.458-22.082 13.653 0 62.708 1.248 94.997 47.62Zm-112.1-87.128c14.899-17.714 25.438-42.293 25.438-66.871a46.17 46.17 0 0 0-.91-9.649c-24.24.912-53.079 16.178-70.469 36.388-13.653 15.553-26.396 40.132-26.396 65.046 0 3.745.622 7.489.91 8.689 1.533.288 4.024.624 6.515.624 21.749 0 49.103-14.593 64.912-34.227Z"/></svg>
