<svg xmlns="http://www.w3.org/2000/svg" viewBox="0 0 512 512"><path d="M416 189.2c-2.4 1.9-45.4 26.1-45.4 80 0 62.3 54.8 84.4 56.4 85-.3 1.3-8.7 30.1-28.9 59.5-18 26-36.7 51.8-65.3 51.8S297 448.9 264 448.9c-32.1 0-43.5 17.1-69.7 17.1-26.1 0-44.3-24-65.3-53.3a257 257 0 0 1-44-139.1c0-81.7 53.1-125 105.4-125 27.7 0 50.9 18.2 68.3 18.2 16.6 0 42.5-19.3 74-19.3 12 0 55 1.1 83.4 41.7M317.9 113c13-15.5 22.3-37 22.3-58.6q0-4.2-.8-8.4c-21.3.8-46.6 14.2-61.8 31.8a91 91 0 0 0-23.2 57c0 3.2.6 6.5.8 7.6 1.4.2 3.6.5 5.8.5 19 0 43-12.8 56.9-30"/></svg>
