<svg xmlns="http://www.w3.org/2000/svg" viewBox="0 0 512 512">
    <path fill="#000" d="M387 181.3c-2 1.5-37.2 21.4-37.2 65.5 0 51 44.9 69.1 46.2 69.6-.2 1-7.1 24.7-23.6 48.8-14.7 21.2-30.1 42.4-53.5 42.4S289.5 394 262.5 394c-26.3 0-35.7 14-57 14-21.5 0-36.4-19.6-53.6-43.7A211 211 0 0 1 116 250.4c0-66.9 43.5-102.4 86.3-102.4 22.7 0 41.6 15 56 15 13.5 0 34.7-15.8 60.6-15.8 9.8 0 45 .8 68.2 34m-80.4-62.5A77 77 0 0 0 324.8 71a33 33 0 0 0-.6-6.9 77 77 0 0 0-50.6 26 75 75 0 0 0-19 46.7c0 2.7.5 5.4.7 6.2q1.8.4 4.7.5c15.6 0 35.2-10.5 46.6-24.6"/>
</svg>
