<svg xmlns="http://www.w3.org/2000/svg" width="960" height="960" fill="none"><path stroke="#000" stroke-width="40" d="M715.8 50q28 .5 55.8 5 25 4.3 47.7 15.8 22.6 11.5 40.5 29.3a160 160 0 0 1 45 88.2q4.5 27.7 4.8 55.5v472a365 365 0 0 1-4.9 55.8q-4.2 25-15.6 47.7a158 158 0 0 1-69.7 69.8c-15 7.6-31.2 12.8-47.8 15.6q-27.6 4.7-55.8 5H244.2q-28-.5-55.4-5h-.1l-1.6-.3q-24.3-4.2-46.4-15.2a160 160 0 0 1-40.1-29.3l-.1-.1-1.1-1.1a155 155 0 0 1-28.2-39.3v-.1l-.7-1.4a169 169 0 0 1-15.2-46.3q-4.5-27.8-5.3-56V244.3q.8-27.9 5.3-55.5A161.4 161.4 0 0 1 188.8 55.3q27.5-4.5 55.5-5.3z"/><path fill="#000" d="M302.1 376.8c-.8-17.1 5-34 16-47A67 67 0 0 1 363 306a67 67 0 0 1-15.7 48.6 56 56 0 0 1-45.2 22.2m83.6 91.6a70 70 0 0 1 33.5-58 71 71 0 0 0-55.6-30.3c-25 0-46.1 14.5-58.2 14.5-12 0-30-13.8-49.8-13.4a75 75 0 0 0-62.9 38.2c-26.7 46.3-7 115.4 19.1 153 12.7 18.8 28.1 39.3 48.2 38.6 20-.7 26.4-12.4 49.5-12.4 23 0 29.7 12.4 49.8 12 20-.3 33.4-18.7 46.8-37.5a162 162 0 0 0 20.7-43 67 67 0 0 1-41-61.7m350.5-72.8-52.8 171.1-52.6-171.1h-45.4L660.3 608H705L780 395zm-214.4-51h-42.1v51h-31.1V429h31V553c0 41 16.5 57.4 58.6 57.4q12 0 24-2.3v-33.6H548c-18 0-26-8.7-26-27.2v-118h40.7v-33.6h-40.8z"/></svg>
