<svg xmlns="http://www.w3.org/2000/svg" viewBox="0 0 960 960"><path fill="#000" d="M453 895.61c-115.91-7.74-194.34-27.2-236.89-58.55-32.45-24.14-56.43-80.89-62.2-146.83-2.52-27.02-2.52-433.64-.17-465.89 5.04-69 28.12-104.85 81.66-125.93 23.44-9.37 80.23-21.44 124.76-26.66 140.8-16.58 308.1-1.63 382.2 34.05 31.92 15.49 50.85 41.97 60.94 85.57 3.79 15.86 3.79 20.54 4.5 254.03.55 255.28.55 257.62-8.64 293.65-13.53 53.51-36.78 90.08-68.51 107.74-38.76 21.44-101.14 37.3-178.48 45.22-26.87 2.88-81.5 4.86-99.16 3.6m140.63-778.1c45.8-4.5 68.5-9.37 68.5-14.42 0-5.4-26.67-11.17-72.1-15.67-16.41-1.62-52.65-2.34-111.78-2.34-89.42.18-115.02 1.62-156.85 8.83-23.8 4.14-29.2 10.8-12.8 15.49 9.74 2.7 58.95 8.83 87.62 10.63 37.32 2.52 163.7.9 197.41-2.52"/></svg>
