<svg viewBox="0 0 512 512" xmlns="http://www.w3.org/2000/svg">
    <path d="M412.333 171.783C409.953 173.628 367.942 197.288 367.942 249.896C367.942 310.746 421.4 332.273 423 332.806C422.754 334.118 414.507 362.288 394.815 390.991C377.255 416.249 358.916 441.467 331.018 441.467C303.119 441.467 295.94 425.27 263.734 425.27C232.348 425.27 221.189 442 195.67 442C170.151 442 152.346 418.628 131.873 389.925C108.16 356.219 89 303.857 89 254.16C89 174.448 140.858 132.173 191.895 132.173C219.014 132.173 241.62 149.969 258.646 149.969C274.852 149.969 300.124 131.107 330.977 131.107C342.669 131.107 384.681 132.173 412.333 171.783ZM316.33 97.3605C329.089 82.23 338.115 61.2359 338.115 40.2418C338.146 37.4748 337.885 34.7123 337.336 32C316.576 32.7791 291.878 45.8184 276.985 63.0811C265.293 76.3664 254.379 97.3605 254.379 118.642C254.379 121.84 254.913 125.038 255.159 126.063C256.472 126.309 258.605 126.596 260.739 126.596C279.365 126.596 302.791 114.131 316.33 97.3605Z" fill="black"/>
</svg>
